<svg preserveAspectRatio="none" overflow="visible" style="display: block;" width="130.096" height="68.2018" viewBox="0 0 130.096 68.2018" fill="none" xmlns="http://www.w3.org/2000/svg">
<g id="Group">
<path id="Vector" d="M124.458 23.926C124.398 24.066 124.468 24.2264 124.608 24.2864C130.218 26.6364 131.538 33.1263 128.518 38.2063C125.498 43.2863 118.578 46.7666 112.628 46.2366C107.978 45.8266 101.788 42.8459 99.9582 38.3059C99.7382 37.7559 99.5782 37.1862 99.3882 36.6262C99.3382 36.4862 99.1782 36.4063 99.0382 36.4563C97.5882 36.9463 96.2882 37.0666 94.9882 36.7366C94.5982 36.6366 93.9082 36.3159 93.3782 36.0159C93.2482 35.9359 93.0882 36.0761 93.1482 36.2161C93.8982 38.1261 94.8082 39.9866 95.2982 41.9866C97.8882 52.5866 87.3982 58.4264 78.9182 52.6164C77.8282 51.8664 77.0082 50.9866 76.1482 50.0266C76.0082 49.8666 75.7582 49.8866 75.6382 50.0666C74.4682 51.9266 73.0582 53.6559 71.6082 55.3059C67.4282 60.0159 60.9782 65.5066 54.1782 63.4866C50.6282 62.4366 48.3482 59.2467 46.7182 56.1067C46.6482 55.9667 46.4482 55.9559 46.3682 56.0959C45.2582 57.8759 44.1782 59.7062 42.8982 61.3762C38.9382 66.5662 32.5382 70.3759 26.1382 66.8059C18.3482 62.4659 17.5982 51.8765 18.4282 43.9065C18.4382 43.7965 18.3182 43.7166 18.2182 43.7766C17.4482 44.2366 16.5482 44.7267 15.6782 45.1067C11.0382 47.1267 3.6982 46.746 0.898199 41.926C-1.5518 37.696 1.6982 34.7967 2.5182 30.8967C3.4682 26.3667 1.9582 23.9561 0.548199 19.9661C-1.0018 15.5561 1.2582 12.7963 5.8782 13.7463C11.1982 14.8263 17.6682 18.6462 21.5282 22.5862C21.8182 22.8862 22.2282 23.3659 22.6182 23.8459C22.6782 23.9159 22.7182 23.9558 22.7782 23.9358C22.8282 23.9258 22.8682 23.8361 22.8882 23.7961C23.8582 21.7361 25.0282 19.5864 26.4182 17.5764C29.0582 13.7764 32.4882 10.5062 36.9082 9.33617C42.6782 7.79617 47.6082 10.696 50.0082 15.926C50.1282 16.186 50.3582 16.6863 50.5082 16.9963C50.5682 17.1163 50.7282 17.1163 50.7882 16.9963C51.9982 14.8063 53.4982 12.6566 55.1382 10.7766C60.7782 4.3466 68.9682 1.36637 74.7882 9.53637C75.1482 10.0364 75.4282 10.5764 75.7682 11.0764C75.8182 11.1564 75.9382 11.1059 75.9182 11.0159C75.3582 8.44586 75.3782 5.73637 76.9982 3.53637C79.8482 -0.323633 86.8382 -0.474141 91.0982 0.515859C94.6182 1.33586 97.7982 3.38621 100.118 6.12621C100.288 6.32621 100.608 6.29641 100.748 6.07641C102.618 3.00641 105.328 1.46602 108.858 0.676015C114.218 -0.523985 120.928 -0.394102 124.368 4.5559C126.658 7.8559 126.788 12.7659 123.958 15.7659C123.868 15.8559 123.858 15.9967 123.928 16.1067C125.398 18.4467 125.468 21.3467 124.468 23.8967L124.458 23.926ZM85.3282 1.99633C82.8482 2.14633 79.6882 2.95652 78.3082 5.19652C76.5882 7.98652 78.3282 11.2862 79.0782 14.1262C80.8382 20.7962 80.3782 27.7659 79.2382 34.5159C78.4382 39.2559 74.9482 48.2662 82.1782 49.6262C88.0382 50.7362 91.8782 46.4458 90.5082 40.7258C89.8482 37.9758 86.9582 32.9261 87.7482 30.2961C88.2282 28.7061 89.6382 29.0267 90.8982 28.8967C96.7082 28.3167 100.048 24.4967 100.968 18.8567C102.648 8.60668 95.4882 1.36633 85.3282 1.99633ZM112.898 2.31664C108.668 2.56664 101.868 3.95668 102.798 9.60668C103.178 11.9367 104.108 14.0359 104.318 16.5159C104.888 23.2259 100.808 29.1059 101.828 35.3059C103.748 47.0159 122.078 42.1459 124.918 33.3059C125.688 30.9259 125.498 27.3966 122.858 26.2766C118.918 24.6066 116.648 29.676 113.098 29.926C109.148 30.206 108.908 23.7965 111.918 22.9065C114.168 22.2365 116.218 24.4067 118.398 23.1467C120.748 21.7767 121.058 16.7366 118.608 15.2766C115.808 13.6166 114.338 17.3465 111.508 16.6965C108.318 15.9665 108.058 9.17625 112.778 9.66625C114.658 9.86625 116.048 11.5266 117.758 12.0666C121.398 13.2266 122.618 8.95605 121.498 6.21605C120.098 2.80605 116.198 2.10613 112.898 2.29613V2.31664ZM50.0082 24.8664C50.0082 24.7464 49.8382 24.7262 49.7982 24.8362C48.5882 28.1162 47.8582 31.6367 47.4782 35.1067C46.7482 41.6467 47.0582 55.1365 55.1682 57.1565C61.8682 58.8265 67.5882 52.0664 70.4282 46.8664C75.3482 37.8464 77.9782 24.2959 74.1282 14.5159C72.2382 9.72586 67.8282 5.54613 62.5482 8.04613C62.3882 8.11613 62.3982 8.34648 62.5482 8.40648C63.9182 8.96648 65.0282 9.70578 65.9282 10.9358C69.4282 15.7058 68.5782 25.1059 65.6482 30.0159C65.3382 30.5359 64.4282 32.2065 63.4882 32.1965C62.4682 32.1965 61.7182 30.3562 61.1082 29.6262C60.3182 28.6862 59.2882 28.9061 59.2982 30.2161C59.3182 32.4761 61.5282 36.5262 57.5482 36.8362C51.9782 37.2762 50.2382 31.1658 50.0482 26.2258C50.0282 25.7958 50.0082 25.2564 49.9882 24.8664H50.0082ZM24.1882 28.7366C24.1882 28.6366 24.0582 28.5958 24.0082 28.6858C23.8882 28.8958 23.7782 29.1362 23.6982 29.3362C21.6082 34.1762 20.7882 42.2759 21.1982 47.5159C21.6882 53.8159 24.2682 62.2862 32.1082 61.6662C37.3182 61.2562 42.9082 54.5365 44.6382 49.9465C45.3482 48.0765 44.6882 46.4662 44.4882 44.5862C43.6382 36.6562 45.2382 27.9261 48.5682 20.7161C48.6382 20.5661 48.6682 20.3966 48.6382 20.2366C47.8082 14.7666 42.0682 9.61605 36.4782 12.2161C36.3182 12.2861 36.3282 12.5262 36.4982 12.5862C36.8582 12.7162 37.3982 12.9364 37.9882 13.2864C42.1282 15.7564 42.6282 22.4265 42.1082 26.6565C41.7682 29.4365 40.1082 34.3867 38.3382 36.1467C37.9682 36.5167 37.3882 36.5461 36.8982 36.2161C35.8082 35.4561 35.3882 33.6367 34.4982 33.3967C33.3482 33.0867 33.3882 34.3758 33.4382 35.1858C33.5882 37.3458 35.2982 40.4161 32.0782 41.0461C29.7882 41.4961 27.7782 40.2861 26.5082 38.4661C24.6282 35.7561 24.1682 31.9963 24.1882 28.7463V28.7366ZM3.4182 15.0461C2.9182 15.1161 2.3182 15.4061 1.9782 15.7961C0.588199 17.4061 2.2682 20.2162 2.8682 21.8762C4.3282 25.9162 4.6382 29.5365 3.2082 33.6565C2.7182 35.0565 1.8482 36.5159 1.7282 38.0159C1.3882 42.3859 7.0182 43.2066 10.2582 42.7366C16.1282 41.8966 19.2482 36.2964 19.9582 30.8664C20.8982 23.6364 17.1782 20.216 11.1582 17.386C9.3182 16.526 5.3582 14.7761 3.4082 15.0461H3.4182Z" fill="white"/>
<path id="Vector_2" d="M87.2382 20.5955C85.7182 19.0555 86.0382 12.8563 86.6482 10.8563C87.7982 7.11626 91.6682 8.32572 92.9282 11.2957C94.1882 14.2657 93.6082 19.0861 90.6882 20.7361C89.6782 21.3061 88.1182 21.4855 87.2382 20.5955Z" fill="white"/>
<path id="Vector_3" d="M10.3082 22.0268C11.0682 21.9268 11.7882 22.3068 12.3582 22.7768C15.3682 25.2468 15.3982 31.1963 12.8882 34.0063C11.5382 35.5163 9.0682 36.0969 8.5082 33.6069C8.0282 31.4569 8.3182 26.3367 8.7482 24.1167C8.9282 23.1867 9.2182 22.1768 10.3082 22.0268Z" fill="white"/>
</g>
</svg>
